<?xml version="1.0" encoding="utf-8"?>
<!-- Generator: Adobe Illustrator 23.1.0, SVG Export Plug-In . SVG Version: 6.00 Build 0)  -->
<svg version="1.1" id="Capa_1" xmlns="http://www.w3.org/2000/svg" xmlns:xlink="http://www.w3.org/1999/xlink" x="0px" y="0px"
	 viewBox="0 0 1918.1 612" style="enable-background:new 0 0 1918.1 612;" xml:space="preserve">
<style type="text/css">
	.st0{fill:#FFFFFF;}
</style>
<g>
	<g>
		<path class="st0" d="M1658.7,384.8c0.1-2.9,1.4-5.1,2.3-7.4c12.4-33.3,24.9-66.5,37.3-99.8c0.9-2.5,2-3.5,4.8-3.5
			c14.6,0.2,29.2,0.1,43.8,0c2.5,0,3.7,0.6,4.6,3.1c17.9,47.8,35.8,95.5,53.9,143.2c1.2,3.1,0.7,3.9-2.6,3.8
			c-7.6-0.2-15.1-0.3-22.7,0c-3.4,0.1-4.7-1.2-5.9-4.2c-15.6-40.1-31.3-80.2-47-120.3c-0.6-1.4-1.2-2.9-1.8-4.3
			c-1.5,0.4-1.5,1.6-1.8,2.5c-10.9,27.6-21.9,55.2-32.7,82.8c-1.1,2.8-2.3,4.1-5.6,4C1676.3,384.6,1667.5,384.8,1658.7,384.8z"/>
		<path class="st0" d="M1779.9,273.5c-6.5-5.4-13-10.8-19.5-16.2c-7.3-6.1-14.7-12.2-21.9-18.5c-2-1.8-3.6-1.8-6-1
			c-17.8,6.5-35.6,12.9-53.5,19.2c-1.3,0.5-2.6,1.4-4.4,1c-0.2-1.8,0.8-3.3,1.3-4.8c4.5-12.3,9-24.6,13.8-36.9
			c1.1-2.8,0.7-4.6-1.3-6.7c-10.2-10.8-20.2-21.8-30.3-32.7c-0.5-0.6-1-1.2-2.1-2.5c8.9,1.8,17,3.4,25,5c7,1.4,14,2.8,21,4.4
			c2.8,0.7,4.2-0.1,5.6-2.7c6.5-12.7,13.3-25.4,19.9-38c0.7-1.4,1.5-2.8,2.7-4.9c1.9,5.1,3.7,9.6,5.4,14.1
			c5.7,15.3,11.4,30.5,17,45.8c0.8,2.3,2.1,3.4,4.3,4.1c9.8,3.4,19.5,6.9,29.2,10.4c1.2,0.4,2.4,1,4.3,1.8
			c-8.4,3.5-16.1,6.7-23.8,9.7c-2.8,1.1-3.5,2.2-2.4,5.2c5,13,9.8,26,14.7,39.1c0.5,1.4,1,2.9,1.5,4.4
			C1780.4,273.2,1780.2,273.4,1779.9,273.5z"/>
		<path class="st0" d="M1492,356.7c0,8.5-0.1,17,0,25.5c0,2.2-0.6,3.3-2.9,3c-0.1,0-0.3,0-0.4,0c-10.9,0-21.7,0.5-32.5,1.3
			c-19.8,1.4-35.6-6.9-45.6-24c-9.6-16.4-9.2-33.4,1.5-49.2c11.1-16.5,27.2-23.4,46.9-21.6c11,1,20.3,5.6,28.5,12.8
			c1.8,1.5,2,2.6,0.2,4.4c-4.3,4.4-8.4,8.9-12.3,13.5c-1.9,2.2-3,2.3-5.3,0.3c-8.1-7.1-17.3-8.2-27.1-4.2
			c-9.9,4.2-15.3,14.3-13.5,24.5c1.7,9.8,10.9,17.9,21.5,18.8c4.7,0.4,9.2-0.6,13.5-2.4c2.5-1,2.5-2.8,2.3-4.8
			c-0.3-2.4-2.3-1.3-3.5-1.4c-7.3-0.2-7.3-0.1-7.3-7.3c0-4.9,0.1-9.8,0-14.7c-0.1-2.3,0.8-2.9,3-2.9c9.9,0.1,19.9,0.2,29.8,0
			c2.9-0.1,3.2,1.2,3.2,3.5C1492,340,1492,348.3,1492,356.7z"/>
		<path class="st0" d="M1399.6,339c0,26.4-21,48-46.4,47.7c-25.5-0.3-45.8-21.4-46.1-47.7c-0.2-26,20.9-47.9,46.3-48
			C1378.8,291,1399.6,312.6,1399.6,339z M1353.3,316.2c-11.7,0.1-21,10.2-21,22.9c0.1,12.6,9.6,22.7,21.3,22.7
			c11.6-0.1,21.1-10.5,21-23C1374.6,326.2,1365,316.1,1353.3,316.2z"/>
		<path class="st0" d="M1543.3,386.8c-25.8-0.1-46.2-21.7-46-48.8c0.1-25.6,21.5-47.2,46.5-46.9c25.5,0.3,45.9,21.8,45.8,48.3
			C1589.5,365.5,1568.6,386.9,1543.3,386.8z M1522.3,339c0,12.7,9.4,22.8,21.1,22.8c11.5,0,21.3-10.5,21.2-22.9
			c0-12.4-9.6-22.8-21.3-22.8C1531.7,316.1,1522.3,326.2,1522.3,339z"/>
		<path class="st0" d="M1237.1,338.4c0-13.9,0.1-27.8-0.1-41.8c0-2.8,0.5-3.9,3.7-3.9c10.5,0.2,20.9,0,31.4,0.1
			c21.1,0.2,34.8,21.8,25.8,40.8c-1,2.1-0.9,3.4,0.4,5.3c6.5,9.4,7.4,19.5,2.2,29.7c-5.3,10.1-13.9,15.4-25.4,15.5
			c-11.4,0.1-22.8-0.1-34.2,0.1c-3.3,0.1-3.9-1.1-3.9-4.1C1237.2,366.2,1237.1,352.3,1237.1,338.4z M1269.2,364.2c2,0,4,0.1,5.9,0
			c4.8-0.3,8.4-3.9,8.6-8.3c0.2-4.6-3.4-8.5-8.3-9c-2.1-0.2-4.2-0.1-6.3-0.1c-8.6,0-8.6,0-8.6,8.7
			C1260.5,364.2,1260.5,364.2,1269.2,364.2z M1260.5,321.3c0,1.7,0.1,3.4,0,5.1c-0.3,2.7,0.5,3.9,3.4,3.6c2.8-0.2,5.5,0,8.3-0.1
			c4.7-0.2,8.3-3.7,8.4-8.3c0.1-4.7-3.5-8.4-8.4-8.7c-1.2-0.1-2.4,0-3.6,0C1260.5,313,1260.5,313,1260.5,321.3z"/>
		<path class="st0" d="M1633.6,291.6c13.1,0,26.3,0.1,39.4-0.1c2.6,0,3.4,0.8,3.3,3.3c-0.2,7.2-0.2,14.3,0,21.5
			c0.1,2.5-0.6,3.5-3.3,3.4c-6.9-0.2-13.8,0.1-20.7-0.1c-3.1-0.1-4,0.7-4,3.9c0.2,19.2,0,38.4,0.2,57.7c0,3.2-0.9,4-4,3.9
			c-7-0.2-14.1-0.2-21.1,0c-3.5,0.1-4.7-0.7-4.7-4.5c0.2-19,0-37.9,0.2-56.9c0-3.3-0.9-4.3-4.2-4.2c-6.8,0.3-13.5,0-20.3,0.1
			c-2.7,0.1-3.7-0.5-3.6-3.4c0.2-7.2,0.2-14.3,0-21.5c-0.1-2.6,0.7-3.3,3.3-3.3C1607.4,291.7,1620.5,291.6,1633.6,291.6z"/>
		<path class="st0" d="M1749.9,143c5.4,1.1,10.8,2.1,16.1,3.4c2.2,0.5,3.4,0.2,4.4-1.9c1.5-2.9,3.3-5.7,5.4-9.2
			c1.1,3.5,2.2,6.1,2.6,8.9c0.6,4.2,3,6,7,6.4c2.7,0.3,5.4,1.1,8.8,1.8c-3.6,2.3-6.4,4.2-9.3,6c-1.9,1.1-2.6,2.3-1.6,4.5
			c1.4,3.1,2.3,6.4,3.7,10.3c-3.5-1.5-5.7-3.7-7.9-5.8c-2.5-2.3-4.6-2.7-7.5-0.5c-3.3,2.5-7,4.5-11.4,7.3c1.5-4.2,2.4-7.5,3.9-10.5
			c1.3-2.8,0.6-4.5-1.5-6.6c-4.5-4.4-8.8-9-13.2-13.5C1749.6,143.4,1749.7,143.2,1749.9,143z"/>
		<path class="st0" d="M1663.9,241c-1.2-1-2.5-1.9-3.7-2.9c-6.6-5.3-6.6-5.3-13.8-0.7c-2.1,1.4-4.2,2.7-6.7,4.4
			c0.6-4,2-7.1,3.3-10.2c0.9-2.2,0.6-3.6-1-5.2c-4.5-4.4-8.8-9.1-14-14.5c6.8,1.4,12.5,2.5,18,3.8c2,0.5,2.9,0,3.7-1.8
			c1.2-2.7,2.5-5.4,4.4-9.2c1.3,4.3,2.3,7.5,3.1,10.7c0.5,2,1.4,3.1,3.6,3.4c3.2,0.4,6.4,1.4,10,2.1c-1.4,2.3-3.6,3-5.3,4.2
			c-5.9,4.1-5.3,2.1-3.1,8.9c0.7,2.2,1.5,4.4,2.3,6.7C1664.4,240.8,1664.2,240.9,1663.9,241z"/>
	</g>
	<g>
		<g id="pFjmcD.tif_1_">
			<g>
				<path class="st0" d="M172.4,178.5c4.5,1.8,8.6,3.7,12.8,5.2c12.1,4.3,24.6,6,37.3,5.3c13.3-0.8,26-4,37.9-10.1
					c1-0.5,1.8-0.4,2.7,0c11.4,5.6,23.5,8.9,36.2,9.9c17.7,1.3,34.5-2.1,50.4-9.9c0.4-0.2,0.7-0.4,1.3-0.6c0.1,0.6,0.1,1.1,0.1,1.6
					c0,53.1,0.1,106.3-0.1,159.4c-0.1,16.4-11.9,29.3-27.2,33.2c-5,1.3-10.2,0.9-15.2,1.1c-12.4,0.5-24.6,2.4-36,7.5
					c-3.3,1.5-6.5,3.3-9.7,5c-0.9,0.5-1.5,0.5-2.4,0c-10.8-6.6-22.5-10.5-35-11.7c-6.2-0.6-12.5-0.9-18.8-1
					c-16.8-0.4-31.6-13.2-34.1-29.8c-0.2-1.5-0.3-3-0.3-4.5c0-52.9,0-105.8,0-158.7C172.4,179.8,172.4,179.2,172.4,178.5z
					 M322.1,214.1c-1.5,0.5-2.5,1-3.6,1.3c-6.9,2.2-14,2.6-21.2,2.2c-11.7-0.7-23-2.9-33.8-7.7c-0.6-0.3-1.4-0.4-2-0.1
					c-8.7,4-17.8,6-27.2,7.2c-7.7,1-15.4,1.3-23.1-0.2c-2.8-0.6-5.6-1.5-8.5-2.4c0,0.6-0.1,1.2-0.1,1.8c0,35.5,0,70.9,0,106.4
					c0,9.1,5.7,17.4,14.1,20.9c3.9,1.6,8,1.8,12.1,1.8c11.1,0.1,21.9,2,31.5,7.9c1,0.6,1.7,0.4,2.5-0.1c4.9-2.9,10.2-5,15.8-6.2
					c6.4-1.4,12.9-1.5,19.4-1.7c12.1-0.4,23.9-10,23.8-24.3c-0.1-34.8,0-69.6,0-104.5C322.1,215.8,322.1,215.1,322.1,214.1z
					 M192.1,287.8c0-0.2,0-0.3-0.1-0.5c1.2-0.5,2.6-1,3.7-1.7c4.6-2.8,5.1-8.1,1-11.3c-4-3.1-10.4-3.1-14.3,0
					c-4.3,3.4-4,8.6,0.7,11.3c1.6,0.9,3.5,1.3,5.3,2c0,0.1,0.1,0.2,0.1,0.3c-2.4,0.2-4.9,0.4-7.5,0.6c1.9,4.2,5.2,2.2,8.6,2.2
					c-1,2.7-1.9,5.2-3,8.1c-1.4-3-3.4-4.7-6-5.4c-1-0.3-2.2,0-3.3,0c0.1,1.1,0.2,2.3,0.3,3.4c0,0.2,0.2,0.4,0.3,0.6
					c1.4,2.3,3.6,3.5,6.1,3.9c1.3,0.2,1.6,0.8,1.4,2c-0.2,1.6-0.4,3.3-0.2,4.9c0.2,2.1,0.7,4.1,1.2,6.6c1.1-0.8,1.7-1.3,2.4-1.7
					c1.3-0.8,1.5-1.7,0.9-3.2c-1.5-3.5-1.4-7.1-0.1-10.7c1.1-2.9,2.1-5.7,3.1-8.7c5.6-0.4,6.4-0.9,6.3-3.5
					C196.8,287.3,194.4,287.5,192.1,287.8z M318.8,344.3c-1,4.4,2.8,4.8,5.6,6.6c-2.2,1.4-4,2.6-5.9,3.6c-4.9,2.6-8.4,6.5-10.8,11.5
					c-0.3,0.6-0.4,1.4-0.7,2.3c1.1,0,1.9-0.1,2.7,0c1.5,0.2,2.3-0.5,2.7-2c0.4-1.5,1.2-2.9,1.9-4.4c5.8,3,10.2,2.8,12.6-0.4
					c-2.2-2.5-5.1-3.1-8.6-3.2c3.1-2.1,5.8-3.9,8.7-5.8c4.4,2.8,6.1,3,7.2,0.7c-1.9-1.1-3.8-2.1-5.6-3.2c2.1-0.1,4,0.2,5.9,0.1
					c4.4-0.3,7.1-4.1,5.9-8.4c-1.1-4.2-5.4-7.7-10-8.1c-3.8-0.3-6.6,1-8,3.7c-1.3,2.7-0.5,6.3,2,9c0.4,0.4,0.7,0.8,1.1,1.2
					c-0.1,0.2-0.2,0.3-0.3,0.5C323.1,346.9,321.1,345.7,318.8,344.3z M259.6,365.8c-0.2,0-0.4-0.1-0.7-0.1c0-0.6,0-1.2-0.1-1.8
					c-0.4-3.2-1.7-5.8-4.8-7.2c-2.5-1.2-4.9-0.6-7,1c-4.2,3.1-5.4,9.3-2.9,13.8c2.6,4.5,7.8,5.2,11.5,1.6c1.1-1.1,1.8-2.5,2.8-3.7
					c0.1,0,0.2,0,0.4,0.1c-0.6,2.1-1.2,4.2-1.8,6.3c2,0.5,3.8-0.1,3.9-2c0.3-3.6,2.4-3.8,5.1-4c2-0.1,3.9-0.8,6.4-1.3
					c-2.6,2.1-3.6,4.5-4.1,7.2c-0.2,1.1,0.3,1.5,1.3,1.3c3.6-0.8,6-2.9,7.2-6.4c0.2-0.6,0.4-1.3,0.6-2.3c1.8,0.8,3.5,1.5,5.1,2.1
					c0.5,0.2,1.2,0.5,1.6,0.2c1.1-0.8,2.1-1.7,3.6-2.9c-2.3-0.7-4-1.4-5.8-1.8c-5.1-1.2-10-0.7-15,0.7c-1.4,0.4-3,0.4-4.6,0.6
					c1.3-6.7,1.1-7.4-1.3-7.7C260.7,361.6,260.1,363.7,259.6,365.8z M187.8,207.9c-3.8-0.5-8.2,1.7-9.1,5c-1.7,5.8,2.5,8,6.8,9.9
					c-0.1,0.2-0.1,0.3-0.2,0.5c-2.2-0.3-4.4-0.5-6.6-0.8c-0.3,2.6,0.6,3.1,6.5,3.6c0.4,1.6,0.7,3.2,1.2,4.7c0.5,1.6,1.2,3.1,2,4.9
					c-4.3-2.2-5.1-2.4-7.3-2.4c-1.8,0-2.1,0.5-1.4,2.2c1.2,2.7,3.4,4.1,6.1,4.8c1,0.3,2.1,0.4,3.6,0.7c-0.5,1.8-1.1,3.5-1.5,5.2
					c-0.1,0.5-0.2,1.2,0.1,1.5c0.9,0.9,1.9,1.6,2.9,2.4c1.4-2.1,2-6.8,1.6-10.3c-0.3-3.6-1.8-6.7-3.1-9.9c-0.4-1.1-0.6-2.2-0.9-3.5
					c7.2,0.3,7.5,0.2,8-2.3c-2.3-0.2-4.6-0.3-6.9-0.5c7.2-3,9.5-5.5,8.6-9.6c-0.8-3.4-5-6.4-8.6-6c0.1,0.2,0.2,0.3,0.3,0.4
					c2.8,2.6,3.3,9.1,1,12.1c-1.8,2.3-4.5,2.2-6-0.4c-0.3-0.6-0.6-1.3-0.7-1.9C183.6,214.2,184.4,210.7,187.8,207.9z M196.3,349.7
					c0.1,0.1,0.2,0.1,0.3,0.2c-2.1,1.2-4.1,2.3-6.2,3.5c1.5,2.2,3,2,7.5-0.9c1.3,1,2.6,2.1,4,3.1c1.4,1,2.9,1.8,4.6,2.8
					c-6.2,1-7.4,1.5-8.8,3.7c4.1,3.4,8.3,2.5,12.8-0.1c0.7,1.8,1.3,3.4,2,4.9c0.2,0.5,0.6,1.3,0.9,1.3c1.3,0.2,2.7,0.1,4.3,0.1
					c-1.1-3.6-3-6.3-5.2-8.8c-2.4-2.8-5.6-4.3-8.6-6.1c-1.2-0.6-2.1-1.6-3.3-2.5c5.8-3.3,6.4-4,5-6.4c-2,1.2-3.6,3.1-6.6,3.4
					c0.9-1,1.5-1.6,2-2.2c3.7-4.6,1.9-10.4-3.5-11.6c-5.3-1.2-11.6,2.6-13.1,7.8c-1.2,4.4,1.5,8.4,6.1,8.6
					C192.4,350.3,194.3,349.9,196.3,349.7z M332.8,287.8c-2.6-0.3-4.9-0.5-7.2-0.7c-0.2,1.9,0.8,3.1,2.7,3.4
					c0.9,0.1,1.9-0.1,2.8,0.1c0.5,0.1,1.1,0.6,1.3,1.1c0.7,1.8,1,3.8,1.8,5.6c2.1,4.5,2.5,8.9,0.4,13.5c-0.2,0.4-0.2,1.2,0,1.4
					c0.9,0.9,2,1.6,3.2,2.5c2-4.4,1.7-8.6,1.3-13c0.9-0.2,1.7-0.3,2.4-0.5c3.3-0.8,5.9-3.6,6.1-6.4c0.1-1.2-0.3-1.7-1.5-1.7
					c-2.1,0.1-3.9,0.8-5.3,2.2c-1,0.9-1.7,2.1-2.7,3.2c-1-2.6-2.6-4.9-2.6-7.8c2.9,0,6.3,1.9,8.1-2.2c-2.7-0.2-5-0.4-7.4-0.6
					c1.8-1,3.7-1.5,5.3-2.4c4.4-2.5,4.9-7.2,1.2-10.8c-4.1-3.9-11.5-3.9-15.6,0.1c-2.7,2.6-2.9,6.6-0.1,9.1
					C328.6,285.5,330.6,286.4,332.8,287.8z M294.1,200c0-1.2,0.2-2.6,0-4c-0.3-1.7-1.6-2.5-3.4-2.3c0.2,1.1,0.4,2.3,0.4,3.4
					c0,1.1-0.2,2.2-0.3,3.3c-0.6-0.9-0.8-1.8-1.2-2.7c-1.1-2.8-3.1-4.9-6.2-5.2c-3-0.3-5.4,1.1-7.1,3.6c-2.3,3.3-2.4,8.7-0.2,12.1
					c2.8,4.3,8.1,4.9,11.5,1c1.3-1.5,2.1-3.6,3.2-5.7c0,2.4,0,4.7,0,7.1c0.3,0,0.6,0.1,0.8,0.1c3.4-1.4,2.2-4.5,2.3-7.6
					c4,1.6,7.7,3.4,11.7,4.6c4.1,1.2,8.3,1.3,12.7,0c-0.6-0.8-1.1-1.5-1.5-2.2c-0.7-1.4-1.6-1.6-3.1-1.1c-1.5,0.5-3.2,0.6-4.8,0.8
					c-0.9-7-3-10-7-10.1c-1,3.1,0,5.9,1.9,8.9C300.4,202.6,297.4,201.3,294.1,200z M339.4,223.3c0-0.2-0.1-0.3-0.1-0.5
					c6.2-3.1,8.2-6.2,6.7-10c-1.4-3.2-6.1-5.7-9-4.7c3.5,2.8,4.8,8.1,2.9,11.7c-0.7,1.3-1.6,2.3-3.2,2.3c-1.6,0-2.6-0.9-3.4-2.1
					c-0.3-0.5-0.6-1.1-0.7-1.8c-0.8-3.8-0.5-7.3,2.5-10.3c-3.9-0.2-8.2,2.8-8.5,6.4c-0.6,6.1,4.1,7.5,8.8,8.7c0,0.2,0,0.3-0.1,0.5
					c-2.3,0.2-4.6,0.3-7.3,0.5c2,4.1,5.2,2.3,8.5,2.2c-1.4,4.1-3.1,7.8-3.9,11.7c-0.9,4-0.7,8.1,1.1,12.2c0.9-0.6,1.5-1.2,2.2-1.6
					c1.3-0.8,1.5-1.6,0.9-3c-0.6-1.4-0.9-3-1.3-4.6c7-1.5,10.2-4,9.9-7.5c-3.3-0.6-6.2,0.3-9,2.5c1.1-3.4,2.2-6.6,3.3-9.9
					c5.5-0.1,7-1,6.4-3.6C343.7,222.7,341.5,223,339.4,223.3z M233.3,203.7c2.5,6.3,6.3,9.1,10.7,7.6c3.5-1.2,6.2-5.6,5.2-8.6
					c-2.5,2.9-5.8,3.4-9.3,3.3c-3.1-0.1-5.2-1.5-5.3-3.5c-0.1-2,1.8-3.9,4.6-4.4c3.8-0.7,7.2,0.1,10,3c0.5-3.2-2.1-7.3-5.4-8.2
					c-6.3-1.8-8.7,2.4-10.6,7.3c0-2.2,0-4.4,0-6.6c-2.7-0.1-3.3,1.1-3.3,6.4c-3.2,1.3-6.4,2.6-9.9,4.1c2.1-3,3.2-5.8,1.9-9.4
					c-1.2,0.6-2.4,1-3.3,1.8c-2.2,1.8-3.3,4.2-3.2,7c0,1.2-0.4,1.8-1.6,1.5c-1.4-0.3-2.8-0.6-4.3-0.8c-0.5-0.1-1.2-0.1-1.4,0.2
					c-0.9,1-1.5,2.1-2.3,3.1c0.4,0.2,0.6,0.4,0.7,0.4c0.4,0.1,0.8,0.2,1.2,0.3c5.7,0.8,11.2,0.2,16.4-2.6c1.8-1,3.8-1.7,6-2.7
					c0,2-0.1,3.6,0,5c0.2,1.9,1.3,2.7,3.1,2.3C233.3,208.1,233.3,205.9,233.3,203.7z M183.9,202.8c0,0.3-0.1,0.6-0.1,0.8
					c2.2-0.3,3.1,1,4,2.5c0.3,0.5,2.3,0.5,2.6,0.1c1.1-1.6,2.4-2.4,4.3-2.3c0-0.2,0-0.4,0.1-0.6c-1.3-0.4-2.6-0.7-4-1.1
					c-0.3-0.8-0.6-1.7-1.2-3.2c-0.8,1.4-1.4,2.3-1.9,3.1C186.4,202.4,185.2,202.6,183.9,202.8z M240.3,358c-1.7,0.7-1.9,2.1-2,3.5
					c-1.2,0.2-2.2,0.4-3.3,0.6c0,0.1,0,0.3-0.1,0.4c0.9,0.6,1.9,1.2,2.9,1.9c-0.4,1.3-1.1,2.5,0.2,3.9c0.5-2,1.6-3,3.5-3.3
					c1-0.2,1.4-2,0.6-2.6C240.7,361.3,239.7,360.1,240.3,358z M333.3,328.8c-0.1,0.2-0.3,0.4-0.4,0.7c1.7,0.9,2.3,2.2,1.9,4.1
					c-0.2,0.9,1.5,2.3,2.2,1.8c1.7-1.2,3.3-1.4,5.1,0c0.1-0.2,0.2-0.5,0.3-0.7c-1-0.9-1.9-1.8-3-2.8c0.1-0.8,0.3-1.8,0.5-2.8
					c-0.1-0.1-0.3-0.2-0.4-0.3c-0.9,0.6-1.8,1.2-2.5,1.6C335.8,329.8,334.5,329.3,333.3,328.8z M182,334.7c0.2,0.2,0.3,0.4,0.5,0.6
					c1.5-1.1,2.9-1.4,4.5-0.4c0.5,0.3,1.4,0.3,1.8,0c0.4-0.3,0.6-1.1,0.8-1.6c0.4-1.1,0.8-2.1,1.3-3.2c0.1-0.3,0.5-0.5,0.7-0.8
					c-0.1-0.2-0.2-0.3-0.3-0.5c-1.2,0.5-2.4,1-3.7,1.5c-0.8-0.5-1.7-1-2.6-1.6c-0.2,0.1-0.3,0.3-0.5,0.4c0.2,1,0.4,2.1,0.5,2.7
					C183.9,332.9,182.9,333.8,182,334.7z M330.7,267.6c0,0.2,0,0.4-0.1,0.6c2-0.1,3.2,0.8,4,2.6c0.2,0.4,2.4,0.6,2.6,0.2
					c1-1.7,2.4-2.6,4.5-2.3c0-0.3-0.1-0.5-0.1-0.8c-1.3-0.3-2.6-0.6-3.9-0.9c-0.3-0.8-0.6-1.7-1.1-2.9c-0.6,0.6-1,0.8-1.1,1.2
					c-0.4,1.4-1.2,2-2.8,1.8C332.1,266.8,331.3,267.3,330.7,267.6z M269.6,207c0.2,0,0.5,0,0.7,0c0.3-1.8,1.1-3.1,2.9-3.8
					c0.9-0.3,1.1-2.1,0.2-2.5c-1.8-0.8-2.9-1.9-2.6-4.2c-0.3,0.1-0.5,0.1-0.8,0.2c-0.3,1.3-0.6,2.5-0.9,3.9c-0.9,0.3-2,0.7-3,1.1
					c0,0.2,0,0.4,0.1,0.5c1,0.4,2,0.8,2.8,1.1C269.1,204.7,269.4,205.9,269.6,207z M333.7,202.3c-1.4,0.4-2.6,0.7-3.8,1.1
					c0,0.2,0.1,0.4,0.1,0.6c1.8,0,3.2,0.7,4.2,2.3c0.3,0.4,2.5,0.3,2.6,0c0.8-1.8,1.9-2.8,4.4-2.6c-0.6-0.6-0.8-0.9-1-0.9
					c-1.1-0.2-2.3,0.1-3.1-0.4c-0.8-0.5-1.2-1.8-2.1-3.2C334.4,200.6,334,201.5,333.7,202.3z M258.1,202.2c0-0.2,0-0.4,0-0.6
					c-1.1-0.4-2.1-0.7-3.3-1.2c0.1-1.4,0.1-2.8-1.3-3.7c0.2,2-0.7,3.2-2.4,3.8c-0.8,0.3-1,2.2-0.2,2.5c1.8,0.7,2.9,2,3,4.1
					c0.2,0,0.5-0.1,0.7-0.1c0.2-1.2,0.5-2.4,0.7-3.8C256.1,203,257.1,202.6,258.1,202.2z M183,267.8c0,0.3,0,0.5,0,0.8
					c2-0.2,3.3,0.6,4.4,2.2c0.3,0.4,2.3,0.4,2.5,0c0.8-1.8,2-2.9,4.2-2.8c-0.1-0.2-0.1-0.5-0.2-0.7c-1.3-0.2-2.6-0.4-3.9-0.7
					c-0.4-0.8-1-1.7-1.5-2.6c-0.2,0-0.3,0-0.5,0.1c-0.4,1-0.7,2-1,2.7C185.5,267.2,184.2,267.5,183,267.8z"/>
				<path class="st0" d="M316.4,435c-1.6,0-3.1,0-4.8,0c0-6.1,0-12.1,0-18.1c-0.1,0-0.2,0-0.4,0c-1.1,4.2-2.1,8.4-3.2,12.5
					c-0.4,1.5-0.8,2.9-1.1,4.4c-0.2,0.9-0.5,1.2-1.5,1.3c-3.9,0.1-3.9,0.2-4.8-3.6c-1.2-4.6-2.3-9.3-3.9-13.9c0,5.8,0,11.6,0,17.4
					c-1.8,0-3.3,0-4.9,0c0-8.5,0-16.9,0-25.5c2.4,0,4.8,0,7.2,0.1c0.3,0,0.7,0.8,0.9,1.3c1.3,4.7,2.6,9.5,3.8,14.3
					c0.1,0.2,0.1,0.5,0.5,0.8c0.8-2.9,1.5-5.8,2.3-8.6c0.6-2.2,1.1-4.5,1.8-6.7c0.1-0.4,0.7-1,1.1-1c2.2-0.1,4.5,0,6.9,0
					C316.4,418,316.4,426.4,316.4,435z"/>
				<path class="st0" d="M182.6,476.1c0-8.4,0-16.6,0-24.9c4.7,0,9.3-0.2,14,0.1c2.8,0.1,4.9,1.8,5.6,4.7c0.7,2.9-0.4,5.2-2.9,6.9
					c3.9,2.3,5,4.7,4,8.3c-0.8,2.8-3.1,4.9-6.2,5C192.3,476.2,187.5,476.1,182.6,476.1z M187.8,471.7c2.4,0,4.8,0,7.2,0
					c2.1-0.1,3.2-1.1,3.2-2.9c0.1-1.9-0.9-3.2-2.9-3.4c-2.5-0.2-4.9,0-7.5,0C187.8,467.5,187.8,469.5,187.8,471.7z M187.8,460.8
					c2.4,0,4.6,0.1,6.8,0c1.7-0.1,2.7-1.1,2.7-2.6c0.1-1.6-0.7-2.6-2.5-2.7c-2.3-0.2-4.6,0-7,0C187.8,457.2,187.8,458.9,187.8,460.8
					z"/>
				<path class="st0" d="M404.2,423.8c4,3,5.6,7.3,8.5,11.2c-2.2,0-4,0.1-5.8-0.1c-0.5,0-1.1-0.6-1.4-1.1c-1.6-2.3-3.3-4.7-4.8-7.1
					c-1.4-2.2-3.4-2.8-6-2.2c0,3.4,0,6.8,0,10.3c-1.8,0-3.5,0-5.2,0c0-8.5,0-16.9,0-25.5c3.9,0,7.7,0,11.5,0c1.3,0,2.7,0.1,4,0.3
					c3.4,0.7,5.2,2.9,5.4,6.2c0.2,3.6-1.4,6.2-4.6,7.3C405.3,423.5,404.9,423.6,404.2,423.8z M394.8,420.3c2.8-0.1,5.5-0.1,8.1-0.4
					c1.5-0.2,2-1.4,2.1-2.8c0-1.5-0.7-2.8-2.2-2.9c-2.6-0.2-5.3-0.1-8-0.1C394.8,416.1,394.8,418,394.8,420.3z"/>
				<path class="st0" d="M228,434.9c0-8.5,0-16.8,0-25.4c3.9,0,7.8,0,11.7,0c2.8,0,5.2,1.1,7,3.3c0.1,0.2,0.3,0.4,0.4,0.6
					c3.2,4.5,3.2,13.2,0,17.7c-1.5,2.2-3.7,3.5-6.3,3.7C236.6,435,232.4,434.9,228,434.9z M233.4,430.5c1.9,0,3.7,0.1,5.5,0
					c2.6-0.1,4.2-1.2,4.5-3.7c0.3-2.9,0.3-5.9,0-8.8c-0.2-2.1-1.8-3.6-3.9-3.9c-2-0.2-4-0.1-6.1-0.1
					C233.4,419.5,233.4,424.9,233.4,430.5z"/>
				<path class="st0" d="M387,422.2c0,6.3-2.6,10.9-7.6,12.4c-8.4,2.7-17.2-1.1-17.3-11.9c0-3.8,0.7-7.3,3.3-10.2
					c3.2-3.5,9-4.6,14.1-2.7c4.7,1.8,6.9,5.5,7.4,10.3C387,420.8,387,421.5,387,422.2z M367.6,422.2c0,0,0.1,0,0.1,0
					c0,0.6,0,1.2,0,1.7c0.3,3.8,2.8,6.7,6.1,6.9c3.8,0.3,6.7-1.6,7.3-5.4c0.4-2.2,0.4-4.5,0-6.7c-0.6-3.4-3.1-5.2-6.4-5.2
					c-3.4,0-5.8,1.8-6.6,5.2C367.8,419.9,367.7,421,367.6,422.2z"/>
				<path class="st0" d="M254.4,458c-1.7,0.3-3.3,0.6-5,1c-0.9-2-2.2-3.6-4.7-3.9c-4.6-0.5-7.7,2-8.1,6.7c-0.1,1.4,0,2.9,0.3,4.3
					c1.2,6.7,8,7.1,12,4.1c0.7-0.5,0.6-2,0.9-3.2c-2.2,0-4,0-5.9,0c0-1.5,0-2.9,0-4.4c0.3,0,0.6-0.1,0.9-0.1c3.2,0,6.5,0,10,0
					c0,3.3,0,6.5,0,9.8c0,0.3-0.4,0.7-0.6,0.9c-4.2,3.6-12,4.4-16.8,1.8c-4.8-2.6-6.3-7.6-6.1-12.3c0.1-3.8,1.4-7.3,4.6-9.8
					c3.7-2.9,10.5-3.3,14.5-1C252.5,453.3,253.8,455.3,254.4,458z"/>
				<path class="st0" d="M256.4,463.6c0.6-2.4,0.8-4.6,1.7-6.6c2.1-5,6.9-7.1,13.2-6.3c4.9,0.6,8.8,4.4,9.5,9.5
					c0.3,2.2,0.3,4.5,0,6.7c-0.8,5.6-4.8,9.2-10.5,9.6c-5.1,0.4-9.6-1-12-5.8C257.2,468.5,257,465.9,256.4,463.6z M275.9,463.6
					c0,0-0.1,0-0.1,0c0-0.8,0-1.6-0.1-2.4c-0.4-3.5-2.8-5.8-5.9-6c-3.8-0.2-6.6,1.5-7.2,5.1c-0.4,2.3-0.3,4.9,0.2,7.2
					c0.6,3.1,3.1,4.7,6.2,4.7c3.1,0,5.4-1.7,6.3-4.7C275.6,466.1,275.7,464.9,275.9,463.6z"/>
				<path class="st0" d="M229.7,463.7c0,6.5-3.1,11-8.3,12.4c-9.8,2.6-17.5-4.4-16-14.6c0.9-6.1,4.3-10,9.5-10.7
					C223.7,449.4,229.7,454.6,229.7,463.7z M210.6,463c0.1,1.2,0.1,1.9,0.1,2.6c0.4,3.5,2.8,6.2,5.8,6.4c3.7,0.3,6.5-1.4,7.2-4.9
					c0.5-2.4,0.4-5,0-7.4c-0.6-3.2-3.1-4.8-6.6-4.7c-3.1,0.1-5.3,1.9-6.1,5C210.8,461.2,210.7,462.4,210.6,463z"/>
				<path class="st0" d="M335.5,476.1c0-8.4,0-16.6,0-24.9c0.3-0.1,0.6-0.2,0.8-0.2c3.5,0,7.1-0.1,10.6,0c3.9,0.1,6.8,1.9,8.3,5.6
					c1.9,4.5,1.9,9.2,0.1,13.7c-1.4,3.4-4,5.4-7.6,5.6C343.8,476.3,339.7,476.1,335.5,476.1z M340.7,471.7c2,0,3.9,0.1,5.7,0
					c2.3-0.1,3.6-1.1,4.2-3.3c0.8-3,0.9-6.1,0.1-9.1c-0.5-1.7-1.5-3.2-3.3-3.5c-2.2-0.3-4.4-0.3-6.7-0.5
					C340.7,461,340.7,466.2,340.7,471.7z"/>
				<path class="st0" d="M128.5,476.1c0-8.4,0-16.6,0-24.9c0.4-0.1,0.7-0.2,1-0.2c3.4,0,6.9-0.1,10.3,0c4.3,0.1,7.3,2.2,8.8,6.2
					c1.5,4.2,1.5,8.4,0,12.6c-1.3,3.6-4,5.8-7.7,6.1C136.8,476.3,132.8,476.1,128.5,476.1z M133.8,471.7c1.9,0,3.7,0.1,5.5,0
					c2.4-0.1,4-1.1,4.3-3.5c0.4-2.8,0.4-5.8,0.2-8.6c-0.2-2.2-1.7-3.7-4-4c-1.9-0.2-3.9,0-6,0C133.8,460.9,133.8,466.1,133.8,471.7z
					"/>
				<path class="st0" d="M169.9,460.8c0.1,0.4,0.2,0.5,0.2,0.6c0.2,3.8,0.2,3.8-3.6,3.8c-2.9,0-5.8,0-8.8,0c0,2.2,0,4.2,0,6.4
					c4.5,0,9.1,0,13.8,0c0,1.6,0,2.9,0,4.4c-6.3,0-12.6,0-19,0c0-8.3,0-16.5,0-24.9c6.1,0,12.2,0,18.4,0c0,1.4,0,2.7,0,4.3
					c-4.3,0-8.7,0-13.2,0c0,1.9,0,3.6,0,5.4C161.8,460.8,165.9,460.8,169.9,460.8z"/>
				<path class="st0" d="M317.4,435.1c1.2-3.2,2.4-6.1,3.5-9.1c2-5,3.9-10,5.8-15.1c0.4-1.1,0.9-1.5,2.1-1.5c4.1,0,4.1,0,5.6,3.8
					c2.7,6.7,5.4,13.4,8.1,20.1c0.2,0.5,0.3,1,0.6,1.8c-1.9,0-3.6,0.1-5.2-0.1c-0.3,0-0.7-0.7-0.9-1.1c-0.7-1.5-0.9-3.6-2-4.3
					c-1.2-0.8-3.3-0.3-4.9-0.3c-1.6,0-3.6-0.4-4.7,0.3c-1.1,0.7-1.4,2.7-1.8,4.2c-0.3,1-0.9,1.3-1.9,1.3
					C320.3,435,319,435.1,317.4,435.1z M326.8,424.8c2.4,0,4.5,0,6.7,0c-1.1-2.9-2.2-5.8-3.4-9.1C328.9,419,327.9,421.8,326.8,424.8
					z"/>
				<path class="st0" d="M283.7,435.1c-1.8,0-3.3,0.1-4.9,0c-0.4,0-0.8-0.5-1.1-0.8c-0.1-0.1-0.1-0.2-0.1-0.3
					c-0.6-1.5-0.8-3.6-1.9-4.3c-1.3-0.8-3.4-0.3-5.1-0.3c-1.6,0-3.5-0.5-4.6,0.3c-1.1,0.7-1.3,2.7-1.8,4.2c-0.3,0.9-0.7,1.4-1.8,1.4
					c-1.3-0.1-2.7,0-4.3,0c0.6-1.5,1.1-2.9,1.6-4.2c2.6-6.7,5.2-13.4,7.8-20.1c0.4-1,0.9-1.4,2-1.4c4.1,0,4.1,0,5.7,3.9
					c2.7,6.7,5.3,13.3,8,20C283.3,433.8,283.4,434.3,283.7,435.1z M267.4,424.7c2.3,0,4.4,0,6.7,0c-1.1-3-2.2-5.8-3.4-9
					C269.4,419,268.4,421.9,267.4,424.7z"/>
				<path class="st0" d="M180.9,434.8c0.7-1.9,1.5-3.8,2.2-5.6c2.4-6.1,4.7-12.2,7.1-18.3c0.4-1.1,0.9-1.5,2.1-1.5
					c4,0.1,4,0,5.6,3.8c2.7,6.7,5.3,13.3,8,20c0.2,0.5,0.4,1.1,0.7,1.9c-1.8,0-3.4,0-5,0c-0.4,0-0.7-0.4-1-0.7
					c-0.2-0.2-0.2-0.5-0.3-0.8c-1.6-4.2-1.6-4.2-6.3-4.2c-1.5,0-2.9-0.1-4.4,0.1c-0.5,0.1-1,0.6-1.5,1c-0.2,0.2-0.3,0.6-0.4,1
					C186.3,435.5,185.7,435.8,180.9,434.8z M193.5,415.7c-1.2,3.3-2.2,6.1-3.3,9c2.3,0,4.4,0,6.7,0
					C195.8,421.8,194.8,419,193.5,415.7z"/>
				<path class="st0" d="M137.9,435.1c-1.8,0-3.4,0.1-4.9,0c-0.4,0-0.9-0.6-1.1-1c-0.5-1.1-1-2.3-1.4-3.6c-0.3-1-0.8-1.2-1.8-1.2
					c-2.5,0.1-5,0.1-7.5,0c-1,0-1.5,0.3-1.7,1.2c-0.1,0.3-0.2,0.5-0.3,0.8c-1.5,4.1-2.1,4.4-6.9,3.5c0.8-2.2,1.7-4.3,2.5-6.5
					c2.3-5.8,4.6-11.7,6.8-17.5c0.4-1.1,1-1.5,2.2-1.5c4,0,4,0,5.5,3.7c2.7,6.7,5.3,13.4,8,20C137.4,433.6,137.6,434.2,137.9,435.1z
					 M124.8,415.7c-1.2,3.3-2.2,6.1-3.2,9c2.3,0,4.4,0,6.6,0C127.1,421.8,126.1,419,124.8,415.7z"/>
				<path class="st0" d="M326.1,476c-0.3,0.1-0.5,0.1-0.6,0.1c-1.6,0-3.6,0.5-4.8-0.2c-1.1-0.7-1.3-2.7-1.9-4.1
					c-0.3-0.8-0.7-1.3-1.7-1.3c-2.5,0.1-5,0.1-7.5,0c-0.9,0-1.5,0.2-1.6,1.1c0,0.1,0,0.1-0.1,0.2c-1.8,4.7-1.8,4.7-7.1,4.2
					c3.2-8.3,6.5-16.6,9.7-24.9c0.2-0.1,0.3-0.1,0.4-0.1c5-0.2,5-0.2,6.9,4.4c2.6,6.4,5.1,12.8,7.7,19.2
					C325.8,475.1,325.9,475.5,326.1,476z M316.6,466c-1.1-2.9-2.1-5.6-3.3-8.8c-1.2,3.2-2.2,6-3.2,8.8
					C312.4,466,314.4,466,316.6,466z"/>
				<path class="st0" d="M180.7,416.3c-0.3,0.2-0.4,0.3-0.6,0.4c-1.5,0.4-3,0.7-4.6,1.1c-0.8-2.5-2.3-4.1-5-4.2
					c-3.4-0.2-6,1.8-6.4,5.5c-0.3,2.3-0.2,4.8,0.2,7.1c0.5,3,2.6,4.6,5.2,4.7c2.8,0.1,4.5-1.1,5.7-4.2c0.1-0.4,0.3-0.7,0.5-1.2
					c1.7,0.6,3.3,1.1,4.9,1.6c-1.3,5.6-4.9,8.3-10.6,8.3c-5.7,0-10.1-3.3-11.3-8.7c-0.9-4.1-0.8-8.2,1.3-12
					c3.9-7.1,15.3-7.8,19.3-1.1C179.9,414.4,180.3,415.4,180.7,416.3z"/>
				<path class="st0" d="M383.7,466.8c1.7,0.5,3.2,1.1,4.8,1.6c-1.2,5.4-4.7,8.2-10.2,8.2c-5.5,0-9.9-3.2-11.1-8.4
					c-0.8-3.6-0.8-7.3,0.6-10.8c2.7-6.5,11.3-9,17.1-5c1.9,1.3,3,3.2,3.6,5.6c-1.7,0.4-3.3,0.8-5,1.2c-0.8-2.3-2.1-3.9-4.6-4.1
					c-3.4-0.3-6,1.4-6.4,4.7c-0.4,2.5-0.3,5.2,0.1,7.7c0.5,2.8,2.5,4.4,5,4.5c2.9,0.1,4.5-1,5.6-3.9
					C383.3,467.7,383.5,467.3,383.7,466.8z"/>
				<path class="st0" d="M350.5,419.4c1.8-3,3.5-5.9,5.1-8.8c0.5-0.9,1.1-1.3,2.2-1.3c1.4,0.1,2.9,0,4.6,0c-1.4,2.2-2.6,4.1-3.8,6
					c-0.5,0.7-0.9,1.5-1.4,2.2c-3.6,4.3-5,9.1-4.2,14.7c0.1,0.8,0,1.7,0,2.7c-1.9,0-3.5,0-5.4,0c0-3,0.1-6,0-8.9
					c-0.1-1.1-0.4-2.4-1-3.4c-2.3-3.9-4.8-7.7-7.2-11.5c-0.3-0.5-0.6-1-1-1.7c2.1,0,3.8-0.1,5.6,0.1c0.5,0,1,0.7,1.3,1.2
					C347,413.5,348.7,416.4,350.5,419.4z"/>
				<path class="st0" d="M289.3,455.5c-2.2,0-4.1,0-6.1,0c-1.1,0-1.6-0.3-1.5-1.5c0.1-0.9,0-1.8,0-2.9c6.7,0,13.3,0,20,0
					c0,1.4,0,2.7,0,4.3c-2.4,0-4.7,0-7.2,0c0,7,0,13.7,0,20.6c-1.8,0-3.4,0-5.2,0C289.3,469.2,289.3,462.4,289.3,455.5z"/>
				<path class="st0" d="M144.4,409.7c0,6.9,0,13.7,0,20.8c3.1,0,6.1,0,9.1,0c4.1,0,4.1,0,3.6,4.1c0,0-0.1,0.1-0.2,0.3
					c-5.8,0-11.7,0-17.7,0c0-8.4,0-16.7,0-25.2C140.9,409.7,142.6,409.7,144.4,409.7z"/>
				<path class="st0" d="M225.8,435c-6,0-11.9,0-17.9,0c0-8.4,0-16.8,0-25.2c1.7,0,3.3,0,5.2,0c0,6.9,0,13.7,0,20.8c2.5,0,4.8,0,7,0
					c0.7,0,1.4,0,2.1,0C226.4,430.5,226.4,430.5,225.8,435z"/>
				<path class="st0" d="M257.3,435c-1.8,0-3.4,0-5.1,0c0-8.5,0-16.9,0-25.5c1.7,0,3.4,0,5.1,0C257.3,418,257.3,426.4,257.3,435z"/>
				<path class="st0" d="M359.3,471.4c1.8,0,3.2,0,4.8,0c0,1.6,0,3.1,0,4.8c-1.6,0-3.1,0-4.8,0C359.3,474.5,359.3,473,359.3,471.4z"
					/>
				<path class="st0" d="M396.3,476.1c-1.7,0-3.3,0-5,0c0-1.3,0-2.6,0-3.8c0-0.3,0.4-0.9,0.6-0.9c1.3-0.1,2.5-0.1,3.8,0
					c0.2,0,0.6,0.5,0.6,0.9C396.3,473.5,396.3,474.8,396.3,476.1z"/>
				<path class="st0" d="M261.4,401.9c-1.7,1.9-3,3.6-4.6,4.9c-0.8,0.6-2.2,0.5-3.7,0.8c0.9-2,1.6-3.5,2.3-5c0.2-0.3,0.7-0.6,1-0.7
					C258,401.8,259.5,401.9,261.4,401.9z"/>
				<path class="st0" d="M319.4,443.6c-1.6,1.8-2.7,3.3-4.2,4.5c-0.9,0.7-2.2,0.7-3.4,1c-0.1-0.2-0.2-0.3-0.3-0.5
					c0.7-1.5,1.3-3,2.1-4.5c0.1-0.3,0.6-0.6,0.9-0.6C316,443.6,317.5,443.6,319.4,443.6z"/>
				<path class="st0" d="M310.9,267.5c-7.1,5.7-14.7,8-23.7,6.4c4.4,4.5,9.1,7.2,15.3,6.9c-3.3,2.7-7.1,4-11.3,4.2
					c-4.2,0.2-8-0.8-12.1-3c2.3,4.4,5.2,7.5,9.6,9.3c-3.7,2.1-7.4,2.6-11.1,1.4c-2.1-0.7-4-2-6-3c-0.4-0.2-0.6-0.7-1-0.7
					c-0.8,0-1.6,0.2-2.4,0.4c0.2,0.7,0.1,1.6,0.6,2c1.4,1.2,3,2.1,4.6,3.1c2.2,1.3,4.5,2.4,6.6,3.8c2,1.3,3.6,2.9,4.5,5.4
					c-1.1,0.3-2.2,0.6-3.5,0.9c3.2,3.3,6.3,6.6,9.4,9.8c0.2,0.2,0.5,0.4,0.7,0.4c1.2-0.2,2.4-0.5,3.9-0.8c-2.5-1.6-5.5-2.8-3.9-6.6
					c2.3,1.5,4.5,2.9,7,4.5c-1.5-2.3-2.9-4.1-3.8-6.2c-1-2.2-0.7-4.6,0.8-6.6c2.3-3.4,6.6-4.1,12.6-2.1c1.3-2.4-0.2-4-2-5.5
					c0.2-0.2,0.4-0.4,0.5-0.6c1.4,0.5,2.8,1,4.3,1.6c0.7-0.5,1.8-1.3,2.8-2c0.2,0.1,0.3,0.2,0.5,0.3c-0.2,1.2-0.3,2.4-0.5,3.7
					c1.5,0.6,2.8,1.4,2.9,3.8c-2.3-2-4.2-1.4-6.1,0.2c3.5,3.3,5.9,7.2,3.2,12.1c-1.9,3.4-5.6,4.1-11.6,3c0.9,0.6,1.8,1.3,2.8,1.8
					c1.1,0.5,2.2,0.9,3.5,1.4c-0.5,1.5-1.5,2.2-2.9,2c-1.2-0.1-2.5-0.6-3.5-1.1c-1-0.6-1.9-1.5-3-2.4c-0.1,0.5-0.2,0.7-0.1,0.8
					c1.9,2,0.9,4.1,0.3,6.1c-0.1,0.3-0.3,0.7-0.6,0.8c-1.9,0.8-3.7,1.7-5.7,2.1c-1,0.2-1.5,0.4-1.6,1.3c-0.3,2.6-0.6,5.2-0.8,7.8
					c-0.2,2.5-0.2,2.7-2.7,2.7c-0.9,0-1.8,0-3,0c0.1-1.4,0.2-2.6,0.4-3.8c0.2-1.2,0.4-2.4,0.6-3.6c-6.4-1.6-10-5.8-9.2-10.9
					c3.9-1,8.1,2.7,9.6,8.7c1-2.1,2.2-4.1,2.8-6.3c0.3-1.1-0.2-2.8-1-3.6c-1.3-1.4-3.2-2.3-4.9-3.4c-2.2-1.4-4.4-2.8-6.8-4.3
					c-0.3,1.1-0.6,2.1-0.9,3.2c-1.2-1-2.2-2.1-3.3-2.9c-1.2-0.8-2.5-1.4-3.9-2c3.4,5.2,4.8,10.7,3.9,16.8c-1.7-1-3.3-2-4.9-2.9
					c-0.2,0.1-0.3,0.2-0.5,0.3c1.6,3.9,1.7,7.8,0.5,11.7c-1.1,3.8-2.9,7.3-5.2,10.6c-5-3.8-7.2-14.4-4.9-22.6
					c-1.6,0.9-3.1,1.9-4.8,2.8c-1-5.8,0.3-11.3,3.9-16.6c-3.2,0.9-5.3,2.6-7.4,4.9c-0.3-1.2-0.6-2.1-0.9-3.3c-1.7,1-3.2,2-4.8,3
					c-1.7,1.1-3.5,2.1-5.2,3.3c-3.1,2-3.4,3.4-1.8,6.8c0.7,1.5,1.3,3.1,1.9,4.6c1.5-6,5-9.3,9.4-9.1c1.4,4.7-2.9,10.1-8.9,11
					c0.3,2.4,0.7,4.9,1,7.4c-1.6,0-3.1,0.1-4.6-0.1c-0.4,0-0.9-0.9-1-1.4c-0.3-2.4-0.4-4.9-0.7-7.3c-0.1-1-0.4-1.9-1-2.4
					c-2.1-0.7-4.2-1.4-6.3-2.2c-1.6-0.7-2.4-4.6-1.5-6.2c0.3-0.5,0.6-1,0.7-1.7c-1.5,1-2.9,2.3-4.5,3.1c-1.9,1-3.6,0.3-4.8-1.6
					c2.2-1.1,4.4-2.3,6.7-3.4c0-0.1-0.1-0.3-0.1-0.4c-4.8,1.3-9.5,1.9-12.4-3.4c-1.8-3.4-0.3-7.6,3.6-11.2c-2.9-1.9-2.9-1.9-5.8-0.7
					c-0.3-1.5,0.3-2.2,2.7-3.5c-0.1-0.6-0.3-1.2-0.4-1.8c-0.1-0.6-0.1-1.2-0.2-1.8c0.1-0.1,0.3-0.2,0.4-0.3c1,0.7,2.1,1.4,2.9,2
					c1.5-0.6,3-1.1,4.4-1.7c0.2,0.2,0.3,0.4,0.5,0.6c-1.7,1.5-3.6,2.9-2.1,5.4c6.7-1.8,10.6-1.1,12.7,2.4c2.1,3.4,1.2,6.8-3.2,11.9
					c0.1,0.1,0.2,0.3,0.3,0.4c2.1-1.4,4.3-2.7,6.4-4.1c1.6,2.1,0.8,3.6-3.5,6.3c2.5,1.3,3.8,1.1,5.6-0.8c2.7-2.7,5.3-5.5,8.1-8.4
					c-1.3-0.3-2.3-0.6-4-1c1.7-1.8,2.9-3.6,4.5-4.7c2.6-1.8,5.5-3.1,8.3-4.7c1.3-0.7,2.6-1.5,3.8-2.5c0.8-0.6,1.9-1.4,0.9-2.6
					c-0.9-1.1-1.9-0.4-2.7,0.3c-3.3,2.6-7,4.2-11.2,3.9c-2.1-0.2-4.2-0.9-6.7-1.5c2.2-1.5,4-2.6,5.5-3.9c1.5-1.4,2.6-3.2,3.8-5
					c-8.2,3.7-15.9,3.3-23.3-1.9c2.9-0.5,5.8-0.7,8.4-1.6c2.6-0.9,5-2.4,7.4-3.9c-9.2,1-16.7-1.9-23-8.1c5.8-1.3,11.5-2.6,17.1-3.9
					c-12.4-1.9-21.1-8.2-22.2-16.5c6.3,2.5,12.9,2.6,19.6,2.1c-5.2-2.4-9.9-5.3-13.5-9.8c-3.6-4.6-5.4-9.8-5.5-15.6
					c0.2,0,0.4-0.1,0.4,0c5.2,5.2,11.9,7.7,18.5,10.4c2.3,0.9,4.6,1.6,6.9,2.4c6.2,2.1,9.9,6.2,10.5,12.9c0.2,2.5,2.3,4.3,4.9,4.3
					c2.6,0,4.5-1.7,4.8-4.1c0.3-2.6,0.6-5.2,0.7-7.8c0.1-2.8-1.1-3.8-3.9-3.5c-1,0.1-1.9,0.3-3,0.5c-0.7-2.7-0.5-5.4,1.1-7.6
					c0.6-0.8,2.1-1.4,3.2-1.4c3.4-0.2,6.9-0.1,10.3-0.1c1.9,0,3.2,1.1,3.6,3.4c0.5,3,0.6,6.1,0.9,9.1c0.2,2.4,0.2,4.8,0.6,7.1
					c0.6,3.2,2.5,4.7,5.3,4.5c2.2-0.2,4.1-1.9,4.3-4.1c0.6-6.7,4.4-10.7,10.5-12.9c4-1.4,8-2.9,11.9-4.5c4.9-2.1,9.7-4.4,13.5-8.5
					c1.1,3.6-1.4,11-5.1,15.6c-3.6,4.4-8.3,7.3-13.5,9.6c6.6,0.5,13.1,1,19.7-1.8c-1.2,5.2-4,8.8-8.1,11.5c-4,2.6-8.6,3.6-13.3,4.1
					C299.2,264.9,304.6,266.9,310.9,267.5z M225,307.8c0-3.4-4.2-8.7-7.5-9.5c-2.2-0.5-3.4,0.2-3.8,2.4c-0.7,3.8,2.7,9.5,6.3,10.7
					C222.8,312.2,225,310.6,225,307.8z M309.8,302.4c0-3.9-2-5.2-4.8-3.7c-3.1,1.6-5.2,4.3-6.3,7.6c-0.6,1.7-0.3,3.2,1,4.4
					c1.3,1.1,3.2,1.2,4.9,0.1C307.9,308.7,309.4,305.5,309.8,302.4z M260.4,233.7c-0.5-0.3-1.3-1.2-2.1-1.3c-1.1-0.1-1.9,0.8-1.8,2
					c0.1,1.2,0.9,1.8,2,1.8C259.6,236.3,260.3,235.6,260.4,233.7z"/>
				<path class="st0" d="M252.1,220.9c2.2,0.8,4.3,1.5,6.7,2.4c0.9-2,1.8-3.9,2.9-6.3c1,2.3,1.7,4.2,2.6,6.3
					c2.2-0.8,4.4-1.6,6.6-2.4c0.1,0.1,0.2,0.2,0.3,0.4c-1.4,2.1-2.8,4.3-4.3,6.4c-0.2,0.3-0.9,0.4-1.4,0.4c-2.6,0-5.2,0-7.8,0
					c-0.5,0-1.3-0.2-1.5-0.5c-1.5-2-2.9-4.2-4.3-6.3C251.9,221.1,252,221,252.1,220.9z"/>
				<path class="st0" d="M193.9,281.3c-0.3,0.9-0.5,2.4-1.3,3.7c-1.4,2.4-4.1,2.3-5.7,0.1c-2-2.7-1.9-8.6,0.2-11.3
					c1.1-1.5,2.6-1.6,4-0.3C193.2,275.4,193.6,278,193.9,281.3z"/>
				<path class="st0" d="M336.4,339.9c-0.3,3-2.1,5.9-5.4,7.8c-1.4,0.8-2.8,0.9-4.1-0.2c-1.3-1.1-1.6-2.5-1.1-4.1
					c1-3.3,3.1-5.7,6.1-7.2C334.6,335,336.4,336.2,336.4,339.9z"/>
				<path class="st0" d="M250,361.4c2.6,0.3,5,0.8,6.9,2.7c1.8,1.8,1.4,3.9-0.8,5.2c-3.4,1.9-10.3,0.1-12.2-3.3
					c-0.8-1.4-0.5-2.8,1.2-3.4C246.7,362,248.4,361.8,250,361.4z"/>
				<path class="st0" d="M198.8,344.6c0,2.9-2,4.4-4.7,3.4c-3.5-1.3-6.5-6.5-5.8-9.8c0.4-1.9,1.4-2.5,3.3-2.2
					C194.9,336.5,198.8,341.2,198.8,344.6z"/>
				<path class="st0" d="M330.8,280.9c0.1-2.8,0.7-5,2.2-6.8c1.6-2,3.8-1.9,5.1,0.3c1.7,3,1.8,6.2,0.6,9.4c-0.8,2-2.2,3-3.9,2.9
					c-2-0.1-2.9-1.6-3.5-3.2C330.9,282.5,330.8,281.4,330.8,280.9z"/>
				<path class="st0" d="M283,206.5c-2.2-0.8-4.4-1.3-6.4-2.3c-2.2-1.2-2.2-3-0.1-4.4c3.4-2.3,7-2.6,10.7-0.9
					c1.5,0.7,2.6,1.9,2.4,3.7c-0.2,1.9-1.6,2.6-3.1,3c-1,0.3-2.2,0.3-3.2,0.5C283.1,206.3,283.1,206.4,283,206.5z"/>
			</g>
		</g>
	</g>
	<g>
		<path class="st0" d="M1141,476.3c-0.8,0-1.5-0.7-1.5-1.5V185.9c0-0.8,0.7-1.5,1.5-1.5s1.5,0.7,1.5,1.5v288.9
			C1142.5,475.6,1141.9,476.3,1141,476.3z"/>
	</g>
	<g>
		<path class="st0" d="M479.8,468.6c-0.8,0-1.5-0.7-1.5-1.5V178.2c0-0.8,0.7-1.5,1.5-1.5s1.5,0.7,1.5,1.5v288.9
			C481.3,467.9,480.6,468.6,479.8,468.6z"/>
	</g>
	<g>
		<path class="st0" d="M665.8,273.6l3.2-5.8c2.1,2.2,4.4,3.4,6.9,3.4c1.5,0,2.6-0.5,3.5-1.4c0.9-0.9,1.3-2.1,1.3-3.6
			c0-1-0.3-1.9-0.8-2.7c-0.5-0.8-1.2-1.5-2-2.2c-0.8-0.6-1.7-1.2-2.7-1.8c-1-0.6-2-1.3-3-2c-1-0.7-1.9-1.5-2.7-2.4
			c-0.8-0.9-1.5-1.9-2-3.2c-0.5-1.3-0.8-2.7-0.8-4.3c0-3.3,1.1-6,3.2-8.1c2.1-2.1,5-3.2,8.6-3.2c3.3,0,6.3,0.9,8.8,2.6l-2.5,6.1
			c-0.7-0.6-1.7-1.1-2.9-1.6s-2.3-0.7-3.3-0.7c-1.6,0-2.9,0.5-3.8,1.4c-0.9,0.9-1.3,2.1-1.3,3.5c0,2.3,1.6,4.4,4.9,6.3
			c1.3,0.7,2.4,1.3,3.2,1.9c0.8,0.6,1.8,1.3,2.8,2.3c1,1,1.8,2.1,2.4,3.4c0.5,1.3,0.8,2.8,0.8,4.4c0,3.3-1,6-3,8.2s-4.9,3.3-8.5,3.3
			C672.1,277.4,668.6,276.1,665.8,273.6z"/>
		<path class="st0" d="M712.6,276.8h-19.6V237h18.9v6.1h-12.1v10.7h9.8v6.1h-9.8v11h12.8V276.8z"/>
		<path class="st0" d="M732.8,236.3c4,0,7.2,1.1,9.7,3.3l-2.9,5.9c-0.7-0.8-1.6-1.4-2.9-2c-1.3-0.5-2.5-0.8-3.7-0.8
			c-3.3,0-5.9,1.3-7.8,3.9c-1.9,2.7-2.8,5.9-2.8,9.9c0,4,1,7.5,2.9,10.3c1.9,2.8,4.5,4.2,7.7,4.2c2.5,0,5-1,7.4-2.9l2.8,5.8
			c-2.9,2.4-6.4,3.6-10.7,3.6c-5.3,0-9.4-1.9-12.5-5.8c-3-3.8-4.5-8.8-4.5-14.9c0-6,1.6-11,4.7-14.8
			C723.2,238.2,727.4,236.3,732.8,236.3z"/>
		<path class="st0" d="M754.4,276.8h-6.8V237h11.5c1.9,0,3.6,0.4,5.2,1.2c1.8,0.9,3.3,2.3,4.4,4.1c1.1,1.8,1.6,4,1.6,6.5
			c0,2.4-0.5,4.6-1.6,6.5c-1.1,2-2.5,3.4-4.2,4.4v0.1c0.4,0.6,0.8,1.3,1.2,2.1l6.6,14.8h-7.5l-6.1-14.9h-4.3V276.8z M754.4,243.1
			v12.8h3.6c1.5,0,2.8-0.6,3.8-1.8c1-1.2,1.5-2.8,1.5-4.7c0-2.5-0.7-4.2-2.1-5.3c-1-0.6-2-1-3.1-1H754.4z"/>
		<path class="st0" d="M796.1,276.8h-19.6V237h18.9v6.1h-12.1v10.7h9.8v6.1h-9.8v11h12.8V276.8z"/>
		<path class="st0" d="M814.7,276.8h-6.8V243h-9.6V237h26v6.1h-9.6V276.8z"/>
		<path class="st0" d="M829.2,276.8h-6.8l10.4-39.8h7.4l10.5,39.8h-6.8l-2.5-10.3h-9.8L829.2,276.8z M835.3,250.1l-2.6,10.7h7.6
			l-2.5-10.7l-1.2-6.2h-0.2C836,246.3,835.7,248.3,835.3,250.1z"/>
		<path class="st0" d="M861.4,276.8h-6.8V237h11.5c1.9,0,3.6,0.4,5.2,1.2c1.8,0.9,3.3,2.3,4.4,4.1c1.1,1.8,1.6,4,1.6,6.5
			c0,2.4-0.5,4.6-1.6,6.5c-1.1,2-2.5,3.4-4.2,4.4v0.1c0.4,0.6,0.8,1.3,1.2,2.1l6.6,14.8h-7.5l-6.1-14.9h-4.3V276.8z M861.4,243.1
			v12.8h3.6c1.5,0,2.8-0.6,3.8-1.8c1-1.2,1.5-2.8,1.5-4.7c0-2.5-0.7-4.2-2.1-5.3c-1-0.6-2-1-3.1-1H861.4z"/>
		<path class="st0" d="M890.3,276.8h-6.8V237h6.8V276.8z M889.3,234.3h-5.3l3.4-7.7h6.7L889.3,234.3z"/>
		<path class="st0" d="M901,276.8h-6.8l10.4-39.8h7.4l10.5,39.8h-6.8l-2.5-10.3h-9.8L901,276.8z M907.1,250.1l-2.6,10.7h7.6
			l-2.5-10.7l-1.2-6.2h-0.2C907.8,246.3,907.5,248.3,907.1,250.1z"/>
		<path class="st0" d="M947.1,276.8h-11V237h11c5,0,8.9,1.8,11.7,5.3c2.9,3.5,4.3,8.4,4.3,14.6c0,6.2-1.4,11.1-4.3,14.7
			C956,275,952.1,276.8,947.1,276.8z M942.9,243.1v27.6h3.9c3,0,5.2-1.2,6.8-3.6c1.6-2.4,2.4-5.8,2.4-10.3c0-4.4-0.8-7.8-2.4-10.1
			c-1.6-2.4-3.9-3.6-6.8-3.6H942.9z"/>
		<path class="st0" d="M988.3,276.8h-19.6V237h18.9v6.1h-12.1v10.7h9.8v6.1h-9.8v11h12.8V276.8z"/>
		<path class="st0" d="M596.7,388.9h-12.8l5.2-79.6h15l10.8,38.7l2.5,12.1h0.3c1-5.5,1.9-9.6,2.5-12.1l10.8-38.7h15l5,79.6h-12.7
			l-2.7-44.3c-0.2-4-0.2-7.4,0-10.3l0.1-2h-0.3c-1,5.4-1.9,9.6-2.7,12.8l-8.5,30.2h-13.3l-8.5-30.2l-2.6-12.8h-0.4v2
			c0,0.2,0,0.6,0.1,1c0,0.4,0.1,1,0.1,1.8c0,0.7,0.1,1.4,0.1,2c0.1,1.8,0,3.6-0.1,5.5L596.7,388.9z"/>
		<path class="st0" d="M659.7,348.5c0-12,2.9-21.7,8.7-29.3c5.8-7.5,13.6-11.3,23.3-11.3c9.7,0,17.5,3.8,23.3,11.3
			c5.8,7.6,8.7,17.3,8.7,29.4c0,12.3-2.9,22.4-8.7,30c-5.8,7.7-13.6,11.5-23.3,11.5c-9.8,0-17.6-3.8-23.4-11.5
			C662.6,370.9,659.7,360.9,659.7,348.5z M673.7,348.5c0,8.7,1.6,15.7,4.8,20.9c3.2,5.2,7.6,7.7,13.2,7.7c5.5,0,9.9-2.6,13.1-7.7
			c3.2-5.1,4.8-12.1,4.8-20.8c0-8.5-1.6-15.2-4.8-20.2c-3.2-4.9-7.6-7.4-13.2-7.4c-5.6,0-10,2.5-13.2,7.4
			C675.3,333.4,673.7,340.1,673.7,348.5z"/>
		<path class="st0" d="M762.4,388.9h-14l-22-79.6h14.7l12.2,51.8l1.9,11.5h0.4c0.6-4.7,1.3-8.6,2-11.5l12.2-51.8h14.5L762.4,388.9z"
			/>
		<path class="st0" d="M805.6,388.9h-13.7v-79.6h13.7V388.9z"/>
		<path class="st0" d="M859.3,388.9H820v-79.6h13.7v67.5h25.7V388.9z"/>
		<path class="st0" d="M881.4,388.9h-13.7v-79.6h13.7V388.9z"/>
		<path class="st0" d="M917.8,388.9h-22.1v-79.6h22.1c9.9,0,17.8,3.5,23.4,10.5c5.8,7,8.6,16.7,8.6,29.2c0,12.5-2.9,22.3-8.6,29.4
			C935.6,385.4,927.8,388.9,917.8,388.9z M909.4,321.5v55.2h7.8c5.9,0,10.5-2.4,13.7-7.2c3.2-4.8,4.8-11.6,4.8-20.5
			c0-8.7-1.6-15.5-4.9-20.3c-3.3-4.8-7.8-7.2-13.6-7.2H909.4z"/>
		<path class="st0" d="M966.6,388.9h-13.7l20.9-79.6h14.8l21,79.6h-13.7l-4.9-20.5h-19.5L966.6,388.9z M978.8,335.5l-5.2,21.4h15.1
			l-5-21.4l-2.4-12.3h-0.3C980.3,327.9,979.6,332,978.8,335.5z"/>
		<path class="st0" d="M1039.4,388.9h-22.1v-79.6h22.1c9.9,0,17.8,3.5,23.4,10.5c5.8,7,8.6,16.7,8.6,29.2c0,12.5-2.9,22.3-8.6,29.4
			C1057.1,385.4,1049.3,388.9,1039.4,388.9z M1031,321.5v55.2h7.8c5.9,0,10.5-2.4,13.7-7.2c3.2-4.8,4.8-11.6,4.8-20.5
			c0-8.7-1.6-15.5-4.9-20.3c-3.3-4.8-7.8-7.2-13.6-7.2H1031z"/>
	</g>
</g>
</svg>
